<svg fill="none" height="32" viewBox="0 0 32 32" width="32" xmlns="http://www.w3.org/2000/svg"><g fill="#00b896"><path d="m19.2958 7.24591c.7179-.69701 1.2477-1.46043 1.5895-2.29058.3304-.83014.4957-1.58251.4957-2.25797 0-.04396-.0029-.09992-.0086-.16604-.006-.06611-.0086-.12112-.0086-.16604-.0113-.0332-.0256-.09409-.0427-.18296-.017-.08822-.0313-.14911-.0427-.18232-2.0053.45381-3.4293 1.27289-4.2724 2.45722-.8546 1.19512-1.299 2.61743-1.3331 4.26661.763-.06672 1.3555-.16016 1.7774-.28194.6153-.1998 1.2303-.59799 1.8455-1.19598z"/><path d="m25.1064 20.0795c-.7862-1.0952-1.1793-2.3294-1.1793-3.7024 0-1.2505.3699-2.3958 1.1108-3.4365.3989-.5642 1.0483-1.2173 1.9484-1.9592-.5924-.7081-1.1849-1.26119-1.7774-1.66028-1.0711-.71856-2.2846-1.07918-3.6401-1.07918-.809 0-1.7946.1888-2.9568.56484-1.1167.37663-1.9313.56417-2.4438.56417-.3873 0-1.1735-.16603-2.3585-.49806-1.1964-.33208-2.2044-.49812-3.0248-.49812-1.95983 0-3.57777.79694-4.85361 2.39113-1.28753 1.616-1.93129 3.6855-1.93129 6.2088 0 2.6783.83744 5.4618 2.51242 8.351 1.69743 2.8664 3.41219 4.2995 5.14408 4.2995.5811 0 1.3328-.1882 2.2557-.5642.923-.3653 1.7316-.5478 2.4267-.5478.7406 0 1.6005.177 2.5807.5309 1.0365.3542 1.8342.531 2.3925.531 1.4581 0 2.9223-1.0845 4.3921-3.2536.9571-1.3832 1.6579-2.7671 2.1022-4.1504-1.014-.2985-1.9139-.9958-2.7-2.0916z"/></g></svg>