<svg fill="none" height="40" viewBox="0 0 150 40" width="150" xmlns="http://www.w3.org/2000/svg" xmlns:xlink="http://www.w3.org/1999/xlink"><linearGradient id="a"><stop offset="0" stop-color="#d7fff8"/><stop offset=".3431" stop-color="#8cf2df"/><stop offset=".655" stop-color="#36d4b6"/></linearGradient><radialGradient id="b" cx="0" cy="0" gradientTransform="matrix(-32.48956788 28.31251286 -28.09564357 -32.24070302 51.825 -9.5177)" gradientUnits="userSpaceOnUse" r="1" xlink:href="#a"/><radialGradient id="c" cx="0" cy="0" gradientTransform="matrix(-34.82104086 20.3991682 -20.21092869 -34.49971914 27.825 -9.5177)" gradientUnits="userSpaceOnUse" r="1" xlink:href="#a"/><radialGradient id="d" cx="0" cy="0" gradientTransform="matrix(108.86 0 0 104.729 57.7607 -1.35889)" gradientUnits="userSpaceOnUse" r="1"><stop offset="0" stop-color="#d4ecf6"/><stop offset=".3431" stop-color="#9fd5d8"/><stop offset=".655" stop-color="#65c1be"/></radialGradient><radialGradient id="e" cx="0" cy="0" gradientTransform="matrix(-43.72059292 27.20308637 -26.95780125 -43.32637255 23.807 13.1344)" gradientUnits="userSpaceOnUse" r="1" xlink:href="#a"/><radialGradient id="f" cx="0" cy="0" gradientTransform="matrix(78.3198 0 0 77.419 51.825 -1.51769)" gradientUnits="userSpaceOnUse" r="1" xlink:href="#a"/><path d="m24 0-24 8v24l24 8 24-8v-24z" fill="#00b896"/><g opacity=".3"><path d="m24 0v23.7801l24 8.2199v-24z" fill="url(#b)"/><path d="m0 8v24l24-8.2199v-23.7801z" fill="url(#c)"/><path d="m48 32-24-8-24 8 24 8z" fill="url(#d)"/><path d="m0 8v24l24 8v-24z" fill="url(#e)"/><path d="m48 8v24l-24 8v-24z" fill="url(#f)"/></g><g fill="#fff"><path d="m83.572 8.26387c-.0946.44937-.4376.59127-1.0288.42572-.1656-.04731-.4021-.09461-.7096-.14191-.2838-.0473-.5085-.07095-.674-.07095-.5204 0-.9106.16555-1.1708.49667-.2601.30747-.3902.72136-.3902 1.2417v1.49c0 .2365.1419.3548.4257.3548h2.7317c.3784 0 .5677.1774.5677.5321v2.0577c0 .3548-.1774.5321-.5322.5321h-2.6962c-.2129 0-.3548.0592-.4258.1774-.0473.0946-.0709.2011-.0709.3193v11.6009c0 .3548-.1892.5322-.5676.5322h-2.7318c-.3784 0-.5676-.1774-.5676-.5322v-11.5654c0-.1419-.0355-.2602-.1064-.3548-.0473-.1182-.1537-.1774-.3193-.1774h-1.2772c-.3547 0-.5321-.1773-.5321-.5321v-2.0577c0-.3547.1892-.5321.5676-.5321h1.2772c.2838 0 .4257-.1301.4257-.3903v-1.98666c0-.63859.1064-1.24169.3193-1.80932.2128-.56763.5203-1.0643.9224-1.49003.4257-.42572.9342-.75683 1.5255-.99335.6149-.26016 1.3126-.39024 2.0931-.39024.544 0 1.0525.03548 1.5255.10643s.8633.16556 1.1708.28381c.1892.04731.3547.13008.4966.24834.1656.09461.2247.29564.1774.60311z"/><path d="m97.8184 21.9579c0 1.9867-.6031 3.5004-1.8093 4.541-1.1826 1.017-2.779 1.5255-4.7894 1.5255-2.034 0-3.6541-.5321-4.8603-1.5964-1.1825-1.0643-1.7738-2.5189-1.7738-4.3637v-4.2572c0-.8987.1537-1.7147.4612-2.4479.3311-.7332.7805-1.3599 1.3481-1.8802.5913-.544 1.289-.9579 2.0931-1.2417.8042-.3075 1.7029-.4612 2.6963-.4612 2.0103 0 3.6186.5203 4.8248 1.5609 1.2062 1.0407 1.8093 2.5307 1.8093 4.4701zm-3.8669-4.0443c0-.8278-.2366-1.4901-.7096-1.9867-.473-.4967-1.1589-.7451-2.0576-.7451-.8751 0-1.5492.2602-2.0222.7805-.473.4967-.7096 1.1471-.7096 1.9513v4.0088c0 .8042.2247 1.4664.6741 1.9867.473.4967 1.1589.745 2.0577.745.8514 0 1.5255-.2483 2.0221-.745.4967-.4966.7451-1.1589.7451-1.9867z"/><path d="m113.349 21.9579c0 1.9867-.603 3.5004-1.809 4.541-1.183 1.017-2.779 1.5255-4.789 1.5255-2.034 0-3.655-.5321-4.861-1.5964-1.182-1.0643-1.774-2.5189-1.774-4.3637v-4.2572c0-.8987.154-1.7147.462-2.4479.331-.7332.78-1.3599 1.348-1.8802.591-.544 1.289-.9579 2.093-1.2417.804-.3075 1.703-.4612 2.696-.4612 2.01 0 3.619.5203 4.825 1.5609 1.206 1.0407 1.809 2.5307 1.809 4.4701zm-3.867-4.0443c0-.8278-.236-1.4901-.709-1.9867-.473-.4967-1.159-.7451-2.058-.7451-.875 0-1.549.2602-2.022.7805-.473.4967-.71 1.1471-.71 1.9513v4.0088c0 .8042.225 1.4664.674 1.9867.473.4967 1.159.745 2.058.745.852 0 1.526-.2483 2.022-.745.497-.4966.745-1.1589.745-1.9867z"/><path d="m128.774 27.2794c0 .3548-.19.5322-.568.5322h-2.661c-.378 0-.567-.1656-.567-.4967v-.2838c0-.071-.024-.1301-.071-.1774-.048-.0709-.154-.0591-.32.0355-.071.0473-.153.1064-.248.1774-.071.0473-.166.1064-.284.1774-.331.2365-.768.4257-1.312.5676-.521.1419-1.029.2128-1.526.2128-1.017 0-1.892-.1537-2.625-.4612-.71-.3074-1.301-.7331-1.774-1.2771-.449-.544-.781-1.1826-.993-1.9158-.213-.7568-.32-1.5728-.32-2.4479v-4.0088c0-.8515.13-1.6438.391-2.377.26-.7568.638-1.4072 1.135-1.9512.52-.5676 1.147-1.0052 1.88-1.3127.757-.3074 1.608-.4612 2.554-.4612.639 0 1.195.0828 1.668.2484.496.1655.863.3429 1.1.5321.212.1419.366.2011.461.1774.118-.0473.177-.1419.177-.2838v-6.70511c0-.37842.189-.56763.568-.56763h2.731c.403 0 .604.17738.604.53215zm-6.635-12.133c-.946 0-1.643.272-2.093.8159-.449.5204-.674 1.1589-.674 1.9158v4.0089c0 .7804.225 1.4309.674 1.9512.45.5203 1.147.7805 2.093.7805.781 0 1.431-.2602 1.952-.7805.52-.5203.78-1.1589.78-1.9158v-4.0088c0-.7569-.248-1.4073-.745-1.9513-.497-.5439-1.159-.8159-1.987-.8159z"/><path d="m138.025 33.5233c-.071.1893-.189.3548-.355.4967-.165.1656-.39.2484-.674.2484h-2.306c-.26 0-.449-.071-.567-.2129-.095-.1419-.083-.3784.035-.7095l1.526-4.9313c.047-.1892.059-.343.035-.4612 0-.0946-.106-.1419-.319-.1419h-.391c-.26 0-.461-.0591-.603-.1774-.118-.1183-.212-.3075-.283-.5676l-4.116-14.2972c-.142-.5203.036-.7805.532-.7805h2.839c.26 0 .449.071.567.2129.118.1182.213.272.284.4612l1.632 6.6341 1.029 4.2927c.047.1893.118.2839.213.2839.094 0 .177-.0946.248-.2839l1.242-4.2572 2.057-6.5987c.048-.1892.13-.3547.249-.4966.142-.1656.366-.2484.674-.2484h2.554c.237 0 .414.0828.532.2484.118.1655.13.3784.036.6385z"/></g></svg>