<svg fill="none" height="100" viewBox="0 0 100 100" width="100" xmlns="http://www.w3.org/2000/svg"><path d="m75.7964 50.7773c-.2414-.4939-.2414-1.0604 0-1.5542l2.2378-4.5779c1.246-2.5489.2588-5.587-2.2474-6.9167l-4.5011-2.3883c-.4856-.2576-.8186-.716-.9136-1.2573l-.8803-5.019c-.4902-2.7944-3.0751-4.6722-5.8837-4.2748l-5.0453.7136c-.5445.0769-1.083-.0982-1.4781-.4803l-3.6622-3.5428c-2.0391-1.9727-5.2336-1.9729-7.2727 0l-3.6623 3.5431c-.3952.3823-.9336.557-1.4781.4804l-5.0452-.7137c-2.8096-.3976-5.3936 1.4804-5.8837 4.2749l-.8804 5.0187c-.095.5414-.4279.9998-.9134 1.2574l-4.5012 2.3883c-2.5061 1.3296-3.4933 4.3679-2.2474 6.9168l2.2377 4.5778c.2414.494.2414 1.0605 0 1.5543l-2.2378 4.5778c-1.2459 2.5489-.2587 5.587 2.2474 6.9167l4.5012 2.3883c.4856.2575.8185.716.9135 1.2572l.8804 5.019c.4462 2.5439 2.6275 4.328 5.1345 4.3278.2469 0 .4975-.0174.7493-.053l5.0452-.7137c.5441-.0772 1.083.0982 1.4781.4804l3.6622 3.5428c1.0198.9864 2.3278 1.4796 3.6363 1.4794 1.3082-.0001 2.617-.4932 3.6363-1.4794l3.6623-3.5428c.3952-.3822.9338-.5568 1.4781-.4804l5.0453.7137c2.8099.3975 5.3935-1.4804 5.8837-4.2749l.8804-5.0187c.095-.5414.428-.9998.9135-1.2574l4.5011-2.3883c2.5062-1.3296 3.4934-4.3679 2.2474-6.9169zm-1.6316 8.4377-4.5011 2.3883c-1.4351.7616-2.4193 2.116-2.7 3.7163l-.8803 5.0189c-.1658.9455-1.0399 1.5805-1.9906 1.4463l-5.0453-.7136c-1.609-.228-3.2011.2899-4.3688 1.4195l-3.6624 3.5426c-.6897.6673-1.7705.6673-2.4605 0l-3.6622-3.5428c-.987-.9547-2.2772-1.4721-3.6241-1.4721-.2468 0-.4956.0174-.7448.0527l-5.0452.7136c-.9499.1343-1.8247-.5008-1.9907-1.4463l-.8804-5.019c-.2808-1.6003-1.2649-2.9549-2.7001-3.7162l-4.5011-2.3883c-.848-.4499-1.182-1.4777-.7605-2.3401l2.2378-4.5779c.7135-1.4597.7135-3.1338 0-4.5935l-2.2378-4.5779c-.4215-.8624-.0875-1.8902.7605-2.3401l4.5011-2.3883c1.4351-.7616 2.4193-2.116 2.7-3.7163l.8803-5.0189c.1659-.9454 1.0399-1.5806 1.9907-1.4463l5.0452.7137c1.6084.2277 3.2011-.29 4.3688-1.4195l3.6624-3.5428c.6897-.6673 1.7705-.6673 2.4605 0l3.6622 3.5428c1.1678 1.1297 2.7603 1.6472 4.3689 1.4195l5.0452-.7137c.9501-.1344 1.8249.5009 1.9907 1.4463l.8803 5.019c.2808 1.6003 1.2649 2.9549 2.7001 3.7162l4.5011 2.3883c.848.4499 1.182 1.4777.7605 2.3401l-2.2378 4.5778c-.7135 1.4596-.7135 3.1339 0 4.5935l2.2378 4.5778c.4216.8626.0876 1.8906-.7604 2.3404z" fill="#353c61"/><g fill="#00b896"><path d="m62.4289 37.3575c-.6756-.6757-1.7713-.6757-2.447 0l-22.8384 22.8385c-.6757.6757-.6757 1.7713 0 2.447.3378.3378.7807.5068 1.2234.5068.4428 0 .8857-.1688 1.2235-.5068l22.8384-22.8384c.6759-.6758.6759-1.7713.0001-2.4471z"/><path d="m42.8649 34.4277c-3.4983 0-6.3444 2.8462-6.3444 6.3444 0 3.4983 2.8461 6.3444 6.3444 6.3444 3.4982 0 6.3444-2.8461 6.3444-6.3444 0-3.4982-2.8462-6.3444-6.3444-6.3444zm0 9.2281c-1.5901 0-2.8837-1.2936-2.8837-2.8838 0-1.5901 1.2936-2.8837 2.8837-2.8837s2.8838 1.2936 2.8838 2.8837c-.0001 1.5902-1.2937 2.8838-2.8838 2.8838z"/><path d="m56.7072 52.884c-3.4983 0-6.3444 2.8462-6.3444 6.3444 0 3.4983 2.8461 6.3444 6.3444 6.3444 3.4982 0 6.3444-2.8461 6.3444-6.3444 0-3.4982-2.8462-6.3444-6.3444-6.3444zm0 9.2281c-1.5901 0-2.8839-1.2936-2.8839-2.8837s1.2936-2.8837 2.8839-2.8837c1.5901 0 2.8837 1.2936 2.8837 2.8837s-1.2936 2.8837-2.8837 2.8837z"/></g></svg>