<svg fill="none" height="359" viewBox="0 0 648 359" width="648" xmlns="http://www.w3.org/2000/svg"><g fill="#63edcb"><path d="m87.673 33.6228c-31.3006 18.8516-59.5607 41.9426-87.534094 65.0684-.156373.1303-.1824235.3649-.0694875.556.1303105.1563.3648575.1825.5299175.0522 28.294764-22.7436 56.841564-45.409 88.211664-63.722 15.655-9.1391 32.013-17.1576 49.153-22.9434 17.08-5.88136 35.089-9.22597 53.063-8.86978 8.983.15637 17.939 1.29437 26.609 3.53572 8.653 2.25003 17.193 5.23846 24.698 9.78196 7.42 4.5522 13.892 10.8159 16.941 18.8169l1.129 2.9798 1.147 4.6651.625 4.8041c.209 4.3263.218 8.6874-.373 13.0659-.982 8.7569-3.154 17.4442-5.534 26.1142-.806 2.9404-1.64 5.8798-2.475 8.826-1.63 5.7491-3.268 11.5251-4.727 17.3841-2.198 8.844-4.031 17.931-4.274 27.313-.252 4.674.252 9.417 1.042 14.117 1.078 4.648 2.459 9.33 4.926 13.526 4.509 8.67 12.406 15.342 21.119 19.382 8.74 4.065 18.478 5.985 28.008 5.664 9.496-.139 18.93-1.85 27.861-4.726 8.939-2.876 17.444-6.724 25.654-10.911 6.167-3.169 12.178-6.539 18.146-9.886 1.967-1.103 3.93-2.203 5.892-3.293 7.888-4.413 15.898-8.54 24.003-12.475 16.176-7.854 32.951-14.499 50.369-18.278 8.688-1.946 17.523-3.163 26.393-3.449 4.43-.148 8.878-.052 13.222.286 4.344.513 8.696 1.121 12.909 2.302 8.47 2.146 16.541 5.847 23.369 11.068.742.504 1.4 1.098 2.059 1.692.136.122.272.245.409.367.286.267.581.526.877.785.511.449 1.023.897 1.486 1.387.392.446.795.882 1.198 1.319 1.043 1.13 2.085 2.259 2.937 3.537 2.684 3.327 4.491 7.211 6.029 11.163 1.268 4.049 2.189 8.262 2.363 12.571.182 4.3-.217 8.653-1.043 12.953-1.659 8.618-4.943 16.993-8.4 25.306-.638 1.564-1.292 3.13-1.949 4.701-2.833 6.781-5.707 13.661-7.443 20.918-2.215 8.87-3.014 18.131-1.789 27.157.026.191.2.339.4.322.208-.018.364-.191.347-.4-.652-8.974.626-17.957 3.145-26.514 2.022-6.994 5.144-13.585 8.298-20.241.72-1.521 1.442-3.045 2.153-4.579 3.779-8.235 7.436-16.697 9.512-25.793 1.034-4.543 1.634-9.226 1.582-13.96-.044-4.735-.878-9.452-2.172-14.056-2.893-9.14-8.722-17.384-16.263-23.274-7.506-5.968-16.254-10.138-25.385-12.64-4.543-1.364-9.234-2.12-13.925-2.754-4.744-.469-9.409-.651-14.091-.582-9.357.122-18.687 1.234-27.817 3.101-18.261 3.866-35.636 10.669-52.212 18.6-8.287 3.979-16.393 8.323-24.359 12.831-1.9 1.076-3.793 2.157-5.681 3.235-6.011 3.431-11.98 6.839-18.036 10.005-7.94 4.187-16.036 7.966-24.411 10.772-8.366 2.806-17.045 4.492-25.784 4.726-8.688.417-17.34-1.216-25.159-4.708-7.775-3.501-14.569-9.122-18.53-16.515-2.189-3.605-3.423-7.697-4.439-11.806-.73-4.196-1.26-8.479-1.069-12.84.122-8.705 1.772-17.479 3.84-26.167 1.361-5.731 2.918-11.448 4.483-17.191.812-2.9795 1.625-5.9663 2.415-8.9663 2.302-8.7829 4.456-17.7049 5.395-26.9309.573-4.5869.529-9.2955.243-13.978l-.487-3.5097-.252-1.7549-.434-1.7287-.895-3.4576-1.303-3.3446c-.382-1.1381-.938-2.1979-1.546-3.2404-.197-.3475-.388-.6988-.579-1.0501-.383-.7028-.765-1.4055-1.194-2.0773l-2.145-2.8843c-.116-.151-.228-.3037-.341-.4563-.243-.3301-.486-.6595-.754-.9685l-1.251-1.2857-2.511-2.554c-.569-.5027-1.171-.9731-1.773-1.4435-.335-.2613-.669-.5225-.998-.7892-.331-.247-.652-.5075-.972-.7674-.603-.49-1.204-.9781-1.869-1.3697l-3.005-1.8591c-8.123-4.80412-17.019-7.78392-25.984-10.01658-9-2.23266-18.27-3.3098958-27.522-3.37070744-18.513-.11293556-36.869 3.58789744-54.114 9.78200744-17.314 6.10718-33.698 14.42978-49.318 23.83828z"/><path d="m566.634 325.241c-8.235-5.1-16.089-10.816-23.395-17.418 5.76 7.983 13.17 14.794 21.206 20.624 8.036 5.872 16.784 10.702 25.793 14.864 9.052 4.074 18.4 7.48 27.956 10.094 9.539 2.641 19.269 4.613 29.111 5.595-9.408-3.014-18.721-6.003-27.912-9.295-9.174-3.328-18.252-6.855-27.061-10.921-8.853-3.987-17.436-8.487-25.698-13.543z"/></g></svg>