<svg fill="none" height="100" viewBox="0 0 100 100" width="100" xmlns="http://www.w3.org/2000/svg"><path clip-rule="evenodd" d="m16.75 42.8889c0-10.0612 8.3129-18.1389 18.476-18.1389h29.7478c10.1631 0 18.476 8.0777 18.476 18.1389v13.243c0 10.0613-8.3129 18.1389-18.476 18.1389h-34.0341c-.1015 0-.1964.0303-.2738.0832l-7.8222 7.9028c-.0429.0434-.0877.0851-.134.1248-2.2504 1.9308-5.9597.4474-5.9597-2.7066zm18.476-13.6389c-7.7666 0-13.976 6.1508-13.976 13.6389v34.5812l6.3057-6.3706c.0413-.0417.0842-.0818.1286-.1202.9172-.7919 2.0774-1.2085 3.2554-1.2085h34.0341c7.7666 0 13.976-6.1508 13.976-13.6389v-13.243c0-7.4881-6.2094-13.6389-13.976-13.6389z" fill="#353c61" fill-rule="evenodd"/><g fill="#00b896"><path d="m50.1 53.999c2.2403 0 4.0565-1.8132 4.0565-4.0499 0-2.2366-1.8162-4.0498-4.0565-4.0498-2.2404 0-4.0565 1.8132-4.0565 4.0498 0 2.2367 1.8161 4.0499 4.0565 4.0499z"/><path d="m36.5782 53.999c2.2404 0 4.0565-1.8132 4.0565-4.0499 0-2.2366-1.8161-4.0498-4.0565-4.0498-2.2403 0-4.0565 1.8132-4.0565 4.0498 0 2.2367 1.8162 4.0499 4.0565 4.0499z"/><path d="m63.6217 53.999c2.2403 0 4.0565-1.8132 4.0565-4.0499 0-2.2366-1.8162-4.0498-4.0565-4.0498-2.2404 0-4.0565 1.8132-4.0565 4.0498 0 2.2367 1.8161 4.0499 4.0565 4.0499z"/></g></svg>