<svg fill="none" height="100" viewBox="0 0 100 100" width="100" xmlns="http://www.w3.org/2000/svg"><g clip-rule="evenodd" fill-rule="evenodd"><g fill="#353c61"><path d="m9 27.6471h81.8823v44.3529h-81.8823zm3.4118 3.4118v37.5294h75.0588v-37.5294z"/><path d="m84.0588 24.2354h-68.2353v-3.4118h68.2353z"/><path d="m22.647 14h54.5882v3.4118h-54.5882z"/><path d="m22.6469 34.4706h54.5883v1.7059c0 1.3036.4233 2.101.9471 2.5838.5467.5038 1.3817.8279 2.4646.8279h1.7059v20.4706h-1.7059c-1.8896 0-3.4117 1.5221-3.4117 3.4118v1.7059h-54.5883v-1.7059c0-1.8897-1.5221-3.4118-3.4117-3.4118h-1.7059v-20.4706h1.7059c1.0829 0 1.918-.3241 2.4646-.8279.5239-.4828.9471-1.2802.9471-2.5838zm3.2407 3.4117c-.286 1.3582-.925 2.5106-1.8756 3.3868-.8746.8061-1.9379 1.3094-3.0709 1.5536v14.0385c2.4009.616 4.2875 2.5026 4.9034 4.9035h48.1931c.6159-2.4009 2.5026-4.2875 4.9035-4.9035v-14.0385c-1.133-.2441-2.1964-.7475-3.071-1.5536-.9506-.8762-1.5895-2.0286-1.8755-3.3868z"/></g><g fill="#00b896"><path d="m34.5883 51.5294h-3.4118v-3.4117h3.4118z"/><path d="m68.7057 51.5294h-3.4118v-3.4117h3.4118z"/><path d="m49.941 44.6889c-2.8264 0-5.1176 2.2912-5.1176 5.1176s2.2912 5.1177 5.1176 5.1177 5.1177-2.2913 5.1177-5.1177-2.2913-5.1176-5.1177-5.1176zm-8.5294 5.1176c0-4.7107 3.8188-8.5294 8.5294-8.5294 4.7107 0 8.5294 3.8187 8.5294 8.5294s-3.8187 8.5294-8.5294 8.5294c-4.7106 0-8.5294-3.8187-8.5294-8.5294z"/></g></g></svg>