<svg fill="none" height="100" viewBox="0 0 100 100" width="100" xmlns="http://www.w3.org/2000/svg"><path clip-rule="evenodd" d="m64.0769 16h-28.1536c-2.9345 0-5.3232 2.3887-5.3232 5.3232v57.2113c0 2.9356 2.3886 5.3243 5.3232 5.3243h28.1524c2.9357 0 5.3244-2.3886 5.3244-5.3232v-57.2124c0-2.9345-2.3887-5.3232-5.3232-5.3232zm-30.4415 11.7412h32.7294v39.6706h-32.7294zm2.2879-8.7059h28.1524c1.2624 0 2.2891 1.027 2.2891 2.2879v3.3827h-32.7294v-3.3827c0-1.2611 1.0268-2.2879 2.2879-2.2879zm30.4415 59.5003c0 1.2611-1.0268 2.2879-2.2879 2.2879h-28.1536c-1.2611 0-2.2879-1.0268-2.2879-2.2879v-8.0885h32.7294z" fill="#353c61" fill-rule="evenodd"/><path d="m47 75.4c0-1.6545 1.3455-3 3-3s3 1.3455 3 3-1.3455 3-3 3-3-1.3455-3-3z" fill="#4cd964"/></svg>