<svg fill="none" height="100" viewBox="0 0 100 100" width="100" xmlns="http://www.w3.org/2000/svg"><g clip-rule="evenodd" fill-rule="evenodd"><g fill="#00b896"><path d="m25.6349 17.7745c.6768-.4777 1.6127-.3163 2.0904.3605l6 8.5c.4778.6768.3164 1.6127-.3604 2.0905-.6768.4777-1.6127.3163-2.0905-.3605l-6-8.5c-.4777-.6768-.3163-1.6127.3605-2.0905z"/><path d="m21.0902 27.9874c.2831-.7785 1.1438-1.1802 1.9223-.897l5.5 2c.7786.2831 1.1802 1.1437.8971 1.9223-.2831.7785-1.1437 1.1801-1.9223.897l-5.5-2c-.7785-.2831-1.1802-1.1437-.8971-1.9223z"/><path d="m75.8649 17.7745c-.6768-.4777-1.6127-.3163-2.0905.3605l-6 8.5c-.4777.6768-.3163 1.6127.3605 2.0905.6767.4777 1.6127.3163 2.0904-.3605l6-8.5c.4778-.6768.3164-1.6127-.3604-2.0905z"/><path d="m80.4098 27.9874c-.2831-.7785-1.1438-1.1802-1.9223-.897l-5.5 2c-.7786.2831-1.1802 1.1437-.8971 1.9223.2831.7785 1.1437 1.1801 1.9223.897l5.5-2c.7785-.2831 1.1802-1.1437.8971-1.9223z"/></g><path d="m50.3262 71.2997 13.8805 8.8618c.8529.5445 1.831.8385 2.83.8385 1.6204 0 3.1757-.7718 4.1781-2.0561.998-1.2774 1.3347-2.9246.9391-4.5051l-4.0256-16.0732 12.5953-10.3758c1.6907-1.3914 2.3345-3.5751 1.6728-5.6612-.6618-2.0864-2.4485-3.4992-4.6307-3.6619l-16.4387-1.2296-6.1165-15.1411c-.8174-2.0253-2.7022-3.296-4.8859-3.296-2.1833 0-4.0689 1.2705-4.8832 3.2987l-.0004.0009-6.1157 15.139-16.439 1.2296c-2.1839.1628-3.9686 1.5758-4.6304 3.6619-.6617 2.0861-.0179 4.2698 1.6728 5.6612l12.5953 10.3759-4.0256 16.073c-.3958 1.5794-.0587 3.2283.9395 4.5058 1.0023 1.2823 2.5574 2.054 4.1777 2.054.999 0 1.9771-.294 2.83-.8385zm1.1077-4.1917c-.3365-.2136-.7218-.323-1.1093-.323-.3857 0-.7737.1086-1.1128.3277l-.0035.0023-14.9848 9.5658c-.2121.1351-.4137.1901-.6094.1901-.3347 0-.688-.1673-.9235-.4681-.2064-.264-.2808-.5911-.1883-.9614l4.3414-17.3399c.1951-.7743-.0748-1.5896-.6901-2.0962l-13.6036-11.2053c-.4351-.3581-.4815-.8472-.3619-1.2251.1195-.3762.4406-.7505 1.0025-.7923l17.7192-1.3246c.7844-.059 1.4657-.5583 1.7602-1.2857l6.5973-16.3305c.2103-.5209.663-.7127 1.0573-.7127.3944 0 .8472.192 1.0575.7129l6.5975 16.3325c.2945.7274.9759 1.2261 1.7603 1.285l17.7192 1.3247c.5628.0418.883.4161 1.0022.7926.1189.3747.0726.8664-.3628 1.2253l-13.6006 11.2029-.0011.0009c-.6184.5067-.8858 1.3248-.6913 2.0971l4.3431 17.3373c.0921.3689.0175.6968-.1898.9627l-.0006.0008c-.2319.2981-.5845.4656-.9215.4656-.1957 0-.3974-.0551-.6094-.1902z" fill="#353c61"/></g></svg>